<svg width="1920" height="1080" viewBox="0 0 1920 1080" fill="none" xmlns="http://www.w3.org/2000/svg">
<g clip-path="url(#clip0_25_17203)">
<rect width="1920" height="1080" fill="#141414"/>
<g opacity="0.5">
<g opacity="0.2">
<circle cx="8.5" cy="26.5" r="2.5" fill="#D9D9D9"/>
</g>
<g opacity="0.2">
<circle cx="98.5" cy="26.5" r="2.5" fill="#D9D9D9"/>
</g>
<g opacity="0.2">
<circle cx="188.5" cy="26.5" r="2.5" fill="#D9D9D9"/>
</g>
<g opacity="0.2">
<circle cx="278.5" cy="26.5" r="2.5" fill="#D9D9D9"/>
</g>
<g opacity="0.2">
<circle cx="368.5" cy="26.5" r="2.5" fill="#D9D9D9"/>
</g>
<g opacity="0.2">
<circle cx="458.5" cy="26.5" r="2.5" fill="#D9D9D9"/>
</g>
<g opacity="0.2">
<circle cx="548.5" cy="26.5" r="2.5" fill="#D9D9D9"/>
</g>
<g opacity="0.2">
<circle cx="638.5" cy="26.5" r="2.5" fill="#D9D9D9"/>
</g>
<g opacity="0.2">
<circle cx="728.5" cy="26.5" r="2.5" fill="#D9D9D9"/>
</g>
<g opacity="0.2">
<circle cx="818.5" cy="26.5" r="2.5" fill="#D9D9D9"/>
</g>
<g opacity="0.2">
<circle cx="908.5" cy="26.5" r="2.5" fill="#D9D9D9"/>
</g>
<g opacity="0.2">
<circle cx="998.5" cy="26.5" r="2.5" fill="#D9D9D9"/>
</g>
<g opacity="0.2">
<circle cx="1088.5" cy="26.5" r="2.5" fill="#D9D9D9"/>
</g>
<g opacity="0.2">
<circle cx="1178.5" cy="26.5" r="2.5" fill="#D9D9D9"/>
</g>
<g opacity="0.2">
<circle cx="1268.5" cy="26.5" r="2.5" fill="#D9D9D9"/>
</g>
<g opacity="0.2">
<circle cx="1358.5" cy="26.5" r="2.5" fill="#D9D9D9"/>
</g>
<g opacity="0.2">
<circle cx="1448.5" cy="26.5" r="2.5" fill="#D9D9D9"/>
</g>
<g opacity="0.2">
<circle cx="1538.5" cy="26.5" r="2.5" fill="#D9D9D9"/>
</g>
<g opacity="0.2">
<circle cx="1628.5" cy="26.5" r="2.5" fill="#D9D9D9"/>
</g>
<g opacity="0.2">
<circle cx="1718.5" cy="26.5" r="2.5" fill="#D9D9D9"/>
</g>
<g opacity="0.2">
<circle cx="1808.5" cy="26.5" r="2.5" fill="#D9D9D9"/>
</g>
<g opacity="0.2">
<circle cx="1898.5" cy="26.5" r="2.5" fill="#D9D9D9"/>
</g>
</g>
<g opacity="0.5">
<g opacity="0.2">
<circle cx="32.5" cy="131.5" r="2.5" fill="#D9D9D9"/>
</g>
<g opacity="0.2">
<circle cx="122.5" cy="131.5" r="2.5" fill="#D9D9D9"/>
</g>
<g opacity="0.2">
<circle cx="212.5" cy="131.5" r="2.5" fill="#D9D9D9"/>
</g>
<g opacity="0.2">
<circle cx="302.5" cy="131.5" r="2.5" fill="#D9D9D9"/>
</g>
<g opacity="0.2">
<circle cx="392.5" cy="131.5" r="2.5" fill="#D9D9D9"/>
</g>
<g opacity="0.2">
<circle cx="482.5" cy="131.5" r="2.5" fill="#D9D9D9"/>
</g>
<g opacity="0.2">
<circle cx="572.5" cy="131.5" r="2.5" fill="#D9D9D9"/>
</g>
<g opacity="0.2">
<circle cx="662.5" cy="131.5" r="2.5" fill="#D9D9D9"/>
</g>
<g opacity="0.2">
<circle cx="752.5" cy="131.5" r="2.5" fill="#D9D9D9"/>
</g>
<g opacity="0.2">
<circle cx="842.5" cy="131.5" r="2.5" fill="#D9D9D9"/>
</g>
<g opacity="0.2">
<circle cx="932.5" cy="131.5" r="2.5" fill="#D9D9D9"/>
</g>
<g opacity="0.2">
<circle cx="1022.5" cy="131.5" r="2.5" fill="#D9D9D9"/>
</g>
<g opacity="0.2">
<circle cx="1112.5" cy="131.5" r="2.5" fill="#D9D9D9"/>
</g>
<g opacity="0.2">
<circle cx="1202.5" cy="131.5" r="2.5" fill="#D9D9D9"/>
</g>
<g opacity="0.2">
<circle cx="1292.5" cy="131.5" r="2.5" fill="#D9D9D9"/>
</g>
<g opacity="0.2">
<circle cx="1382.5" cy="131.5" r="2.5" fill="#D9D9D9"/>
</g>
<g opacity="0.2">
<circle cx="1472.5" cy="131.5" r="2.5" fill="#D9D9D9"/>
</g>
<g opacity="0.2">
<circle cx="1562.5" cy="131.5" r="2.5" fill="#D9D9D9"/>
</g>
<g opacity="0.2">
<circle cx="1652.5" cy="131.5" r="2.5" fill="#D9D9D9"/>
</g>
<g opacity="0.2">
<circle cx="1742.5" cy="131.5" r="2.5" fill="#D9D9D9"/>
</g>
<g opacity="0.2">
<circle cx="1832.5" cy="131.5" r="2.5" fill="#D9D9D9"/>
</g>
</g>
<g opacity="0.5">
<g opacity="0.2">
<circle cx="41.5" cy="233.5" r="2.5" fill="#D9D9D9"/>
</g>
<g opacity="0.2">
<circle cx="131.5" cy="233.5" r="2.5" fill="#D9D9D9"/>
</g>
<g opacity="0.2">
<circle cx="221.5" cy="233.5" r="2.5" fill="#D9D9D9"/>
</g>
<g opacity="0.2">
<circle cx="311.5" cy="233.5" r="2.5" fill="#D9D9D9"/>
</g>
<g opacity="0.2">
<circle cx="401.5" cy="233.5" r="2.5" fill="#D9D9D9"/>
</g>
<g opacity="0.2">
<circle cx="491.5" cy="233.5" r="2.5" fill="#D9D9D9"/>
</g>
<g opacity="0.2">
<circle cx="581.5" cy="233.5" r="2.5" fill="#D9D9D9"/>
</g>
<g opacity="0.2">
<circle cx="671.5" cy="233.5" r="2.5" fill="#D9D9D9"/>
</g>
<g opacity="0.2">
<circle cx="761.5" cy="233.5" r="2.5" fill="#D9D9D9"/>
</g>
<g opacity="0.2">
<circle cx="851.5" cy="233.5" r="2.5" fill="#D9D9D9"/>
</g>
<g opacity="0.2">
<circle cx="941.5" cy="233.5" r="2.5" fill="#D9D9D9"/>
</g>
<g opacity="0.2">
<circle cx="1031.5" cy="233.5" r="2.5" fill="#D9D9D9"/>
</g>
<g opacity="0.2">
<circle cx="1121.5" cy="233.5" r="2.5" fill="#D9D9D9"/>
</g>
<g opacity="0.2">
<circle cx="1211.5" cy="233.5" r="2.5" fill="#D9D9D9"/>
</g>
<g opacity="0.2">
<circle cx="1301.5" cy="233.5" r="2.5" fill="#D9D9D9"/>
</g>
<g opacity="0.2">
<circle cx="1391.5" cy="233.5" r="2.5" fill="#D9D9D9"/>
</g>
<g opacity="0.2">
<circle cx="1481.5" cy="233.5" r="2.5" fill="#D9D9D9"/>
</g>
<g opacity="0.2">
<circle cx="1571.5" cy="233.5" r="2.5" fill="#D9D9D9"/>
</g>
<g opacity="0.2">
<circle cx="1661.5" cy="233.5" r="2.5" fill="#D9D9D9"/>
</g>
<g opacity="0.2">
<circle cx="1751.5" cy="233.5" r="2.5" fill="#D9D9D9"/>
</g>
<g opacity="0.2">
<circle cx="1841.5" cy="233.5" r="2.5" fill="#D9D9D9"/>
</g>
</g>
<g opacity="0.5">
<g opacity="0.2">
<circle cx="11.5" cy="345.5" r="2.5" fill="#D9D9D9"/>
</g>
<g opacity="0.2">
<circle cx="101.5" cy="345.5" r="2.5" fill="#D9D9D9"/>
</g>
<g opacity="0.2">
<circle cx="191.5" cy="345.5" r="2.5" fill="#D9D9D9"/>
</g>
<g opacity="0.2">
<circle cx="281.5" cy="345.5" r="2.5" fill="#D9D9D9"/>
</g>
<g opacity="0.2">
<circle cx="371.5" cy="345.5" r="2.5" fill="#D9D9D9"/>
</g>
<g opacity="0.2">
<circle cx="461.5" cy="345.5" r="2.5" fill="#D9D9D9"/>
</g>
<g opacity="0.2">
<circle cx="551.5" cy="345.5" r="2.5" fill="#D9D9D9"/>
</g>
<g opacity="0.2">
<circle cx="641.5" cy="345.5" r="2.5" fill="#D9D9D9"/>
</g>
<g opacity="0.2">
<circle cx="731.5" cy="345.5" r="2.5" fill="#D9D9D9"/>
</g>
<g opacity="0.2">
<circle cx="821.5" cy="345.5" r="2.5" fill="#D9D9D9"/>
</g>
<g opacity="0.2">
<circle cx="911.5" cy="345.5" r="2.5" fill="#D9D9D9"/>
</g>
<g opacity="0.2">
<circle cx="1001.5" cy="345.5" r="2.5" fill="#D9D9D9"/>
</g>
<g opacity="0.2">
<circle cx="1091.5" cy="345.5" r="2.5" fill="#D9D9D9"/>
</g>
<g opacity="0.2">
<circle cx="1181.5" cy="345.5" r="2.5" fill="#D9D9D9"/>
</g>
<g opacity="0.2">
<circle cx="1271.5" cy="345.5" r="2.5" fill="#D9D9D9"/>
</g>
<g opacity="0.2">
<circle cx="1361.5" cy="345.5" r="2.5" fill="#D9D9D9"/>
</g>
<g opacity="0.2">
<circle cx="1451.5" cy="345.5" r="2.5" fill="#D9D9D9"/>
</g>
<g opacity="0.2">
<circle cx="1541.5" cy="345.5" r="2.5" fill="#D9D9D9"/>
</g>
<g opacity="0.2">
<circle cx="1631.5" cy="345.5" r="2.5" fill="#D9D9D9"/>
</g>
<g opacity="0.2">
<circle cx="1721.5" cy="345.5" r="2.5" fill="#D9D9D9"/>
</g>
<g opacity="0.2">
<circle cx="1811.5" cy="345.5" r="2.5" fill="#D9D9D9"/>
</g>
<g opacity="0.2">
<circle cx="1901.5" cy="345.5" r="2.5" fill="#D9D9D9"/>
</g>
</g>
<g opacity="0.5">
<g opacity="0.2">
<circle cx="27.5" cy="450.5" r="2.5" fill="#D9D9D9"/>
</g>
<g opacity="0.2">
<circle cx="117.5" cy="450.5" r="2.5" fill="#D9D9D9"/>
</g>
<g opacity="0.2">
<circle cx="207.5" cy="450.5" r="2.5" fill="#D9D9D9"/>
</g>
<g opacity="0.2">
<circle cx="297.5" cy="450.5" r="2.5" fill="#D9D9D9"/>
</g>
<g opacity="0.2">
<circle cx="387.5" cy="450.5" r="2.5" fill="#D9D9D9"/>
</g>
<g opacity="0.2">
<circle cx="477.5" cy="450.5" r="2.5" fill="#D9D9D9"/>
</g>
<g opacity="0.2">
<circle cx="567.5" cy="450.5" r="2.5" fill="#D9D9D9"/>
</g>
<g opacity="0.2">
<circle cx="657.5" cy="450.5" r="2.5" fill="#D9D9D9"/>
</g>
<g opacity="0.2">
<circle cx="747.5" cy="450.5" r="2.5" fill="#D9D9D9"/>
</g>
<g opacity="0.2">
<circle cx="837.5" cy="450.5" r="2.5" fill="#D9D9D9"/>
</g>
<g opacity="0.2">
<circle cx="927.5" cy="450.5" r="2.5" fill="#D9D9D9"/>
</g>
<g opacity="0.2">
<circle cx="1017.5" cy="450.5" r="2.5" fill="#D9D9D9"/>
</g>
<g opacity="0.2">
<circle cx="1107.5" cy="450.5" r="2.5" fill="#D9D9D9"/>
</g>
<g opacity="0.2">
<circle cx="1197.5" cy="450.5" r="2.5" fill="#D9D9D9"/>
</g>
<g opacity="0.2">
<circle cx="1287.5" cy="450.5" r="2.5" fill="#D9D9D9"/>
</g>
<g opacity="0.2">
<circle cx="1377.5" cy="450.5" r="2.5" fill="#D9D9D9"/>
</g>
<g opacity="0.2">
<circle cx="1467.5" cy="450.5" r="2.5" fill="#D9D9D9"/>
</g>
<g opacity="0.2">
<circle cx="1557.5" cy="450.5" r="2.5" fill="#D9D9D9"/>
</g>
<g opacity="0.2">
<circle cx="1647.5" cy="450.5" r="2.5" fill="#D9D9D9"/>
</g>
<g opacity="0.2">
<circle cx="1737.5" cy="450.5" r="2.5" fill="#D9D9D9"/>
</g>
<g opacity="0.2">
<circle cx="1827.5" cy="450.5" r="2.5" fill="#D9D9D9"/>
</g>
<g opacity="0.2">
<circle cx="1917.5" cy="450.5" r="2.5" fill="#D9D9D9"/>
</g>
</g>
<g opacity="0.5">
<g opacity="0.2">
<circle cx="16.5" cy="552.5" r="2.5" fill="#D9D9D9"/>
</g>
<g opacity="0.2">
<circle cx="106.5" cy="552.5" r="2.5" fill="#D9D9D9"/>
</g>
<g opacity="0.2">
<circle cx="196.5" cy="552.5" r="2.5" fill="#D9D9D9"/>
</g>
<g opacity="0.2">
<circle cx="286.5" cy="552.5" r="2.5" fill="#D9D9D9"/>
</g>
<g opacity="0.2">
<circle cx="376.5" cy="552.5" r="2.5" fill="#D9D9D9"/>
</g>
<g opacity="0.2">
<circle cx="466.5" cy="552.5" r="2.5" fill="#D9D9D9"/>
</g>
<g opacity="0.2">
<circle cx="556.5" cy="552.5" r="2.5" fill="#D9D9D9"/>
</g>
<g opacity="0.2">
<circle cx="646.5" cy="552.5" r="2.5" fill="#D9D9D9"/>
</g>
<g opacity="0.2">
<circle cx="736.5" cy="552.5" r="2.5" fill="#D9D9D9"/>
</g>
<g opacity="0.2">
<circle cx="826.5" cy="552.5" r="2.5" fill="#D9D9D9"/>
</g>
<g opacity="0.2">
<circle cx="916.5" cy="552.5" r="2.5" fill="#D9D9D9"/>
</g>
<g opacity="0.2">
<circle cx="1006.5" cy="552.5" r="2.5" fill="#D9D9D9"/>
</g>
<g opacity="0.2">
<circle cx="1096.5" cy="552.5" r="2.5" fill="#D9D9D9"/>
</g>
<g opacity="0.2">
<circle cx="1186.5" cy="552.5" r="2.5" fill="#D9D9D9"/>
</g>
<g opacity="0.2">
<circle cx="1276.5" cy="552.5" r="2.5" fill="#D9D9D9"/>
</g>
<g opacity="0.2">
<circle cx="1366.5" cy="552.5" r="2.5" fill="#D9D9D9"/>
</g>
<g opacity="0.2">
<circle cx="1456.5" cy="552.5" r="2.5" fill="#D9D9D9"/>
</g>
<g opacity="0.2">
<circle cx="1546.5" cy="552.5" r="2.5" fill="#D9D9D9"/>
</g>
<g opacity="0.2">
<circle cx="1636.5" cy="552.5" r="2.5" fill="#D9D9D9"/>
</g>
<g opacity="0.2">
<circle cx="1726.5" cy="552.5" r="2.5" fill="#D9D9D9"/>
</g>
<g opacity="0.2">
<circle cx="1816.5" cy="552.5" r="2.5" fill="#D9D9D9"/>
</g>
<g opacity="0.2">
<circle cx="1906.5" cy="552.5" r="2.5" fill="#D9D9D9"/>
</g>
</g>
<g opacity="0.5">
<g opacity="0.2">
<circle cx="2.5" cy="657.5" r="2.5" fill="#D9D9D9"/>
</g>
<g opacity="0.2">
<circle cx="92.5" cy="657.5" r="2.5" fill="#D9D9D9"/>
</g>
<g opacity="0.2">
<circle cx="182.5" cy="657.5" r="2.5" fill="#D9D9D9"/>
</g>
<g opacity="0.2">
<circle cx="272.5" cy="657.5" r="2.5" fill="#D9D9D9"/>
</g>
<g opacity="0.2">
<circle cx="362.5" cy="657.5" r="2.5" fill="#D9D9D9"/>
</g>
<g opacity="0.2">
<circle cx="452.5" cy="657.5" r="2.5" fill="#D9D9D9"/>
</g>
<g opacity="0.2">
<circle cx="542.5" cy="657.5" r="2.5" fill="#D9D9D9"/>
</g>
<g opacity="0.2">
<circle cx="632.5" cy="657.5" r="2.5" fill="#D9D9D9"/>
</g>
<g opacity="0.2">
<circle cx="722.5" cy="657.5" r="2.5" fill="#D9D9D9"/>
</g>
<g opacity="0.2">
<circle cx="812.5" cy="657.5" r="2.5" fill="#D9D9D9"/>
</g>
<g opacity="0.2">
<circle cx="902.5" cy="657.5" r="2.5" fill="#D9D9D9"/>
</g>
<g opacity="0.2">
<circle cx="992.5" cy="657.5" r="2.5" fill="#D9D9D9"/>
</g>
<g opacity="0.2">
<circle cx="1082.5" cy="657.5" r="2.5" fill="#D9D9D9"/>
</g>
<g opacity="0.2">
<circle cx="1172.5" cy="657.5" r="2.5" fill="#D9D9D9"/>
</g>
<g opacity="0.2">
<circle cx="1262.5" cy="657.5" r="2.5" fill="#D9D9D9"/>
</g>
<g opacity="0.2">
<circle cx="1352.5" cy="657.5" r="2.5" fill="#D9D9D9"/>
</g>
<g opacity="0.2">
<circle cx="1442.5" cy="657.5" r="2.5" fill="#D9D9D9"/>
</g>
<g opacity="0.2">
<circle cx="1532.5" cy="657.5" r="2.5" fill="#D9D9D9"/>
</g>
<g opacity="0.2">
<circle cx="1622.5" cy="657.5" r="2.5" fill="#D9D9D9"/>
</g>
<g opacity="0.2">
<circle cx="1712.5" cy="657.5" r="2.5" fill="#D9D9D9"/>
</g>
<g opacity="0.2">
<circle cx="1802.5" cy="657.5" r="2.5" fill="#D9D9D9"/>
</g>
<g opacity="0.2">
<circle cx="1892.5" cy="657.5" r="2.5" fill="#D9D9D9"/>
</g>
</g>
<g opacity="0.5">
<g opacity="0.2">
<circle cx="7.5" cy="759.5" r="2.5" fill="#D9D9D9"/>
</g>
<g opacity="0.2">
<circle cx="97.5" cy="759.5" r="2.5" fill="#D9D9D9"/>
</g>
<g opacity="0.2">
<circle cx="187.5" cy="759.5" r="2.5" fill="#D9D9D9"/>
</g>
<g opacity="0.2">
<circle cx="277.5" cy="759.5" r="2.5" fill="#D9D9D9"/>
</g>
<g opacity="0.2">
<circle cx="367.5" cy="759.5" r="2.5" fill="#D9D9D9"/>
</g>
<g opacity="0.2">
<circle cx="457.5" cy="759.5" r="2.5" fill="#D9D9D9"/>
</g>
<g opacity="0.2">
<circle cx="547.5" cy="759.5" r="2.5" fill="#D9D9D9"/>
</g>
<g opacity="0.2">
<circle cx="637.5" cy="759.5" r="2.5" fill="#D9D9D9"/>
</g>
<g opacity="0.2">
<circle cx="727.5" cy="759.5" r="2.5" fill="#D9D9D9"/>
</g>
<g opacity="0.2">
<circle cx="817.5" cy="759.5" r="2.5" fill="#D9D9D9"/>
</g>
<g opacity="0.2">
<circle cx="907.5" cy="759.5" r="2.5" fill="#D9D9D9"/>
</g>
<g opacity="0.2">
<circle cx="997.5" cy="759.5" r="2.5" fill="#D9D9D9"/>
</g>
<g opacity="0.2">
<circle cx="1087.5" cy="759.5" r="2.5" fill="#D9D9D9"/>
</g>
<g opacity="0.2">
<circle cx="1177.5" cy="759.5" r="2.5" fill="#D9D9D9"/>
</g>
<g opacity="0.2">
<circle cx="1267.5" cy="759.5" r="2.5" fill="#D9D9D9"/>
</g>
<g opacity="0.2">
<circle cx="1357.5" cy="759.5" r="2.5" fill="#D9D9D9"/>
</g>
<g opacity="0.2">
<circle cx="1447.5" cy="759.5" r="2.5" fill="#D9D9D9"/>
</g>
<g opacity="0.2">
<circle cx="1537.5" cy="759.5" r="2.5" fill="#D9D9D9"/>
</g>
<g opacity="0.2">
<circle cx="1627.5" cy="759.5" r="2.5" fill="#D9D9D9"/>
</g>
<g opacity="0.2">
<circle cx="1717.5" cy="759.5" r="2.5" fill="#D9D9D9"/>
</g>
<g opacity="0.2">
<circle cx="1807.5" cy="759.5" r="2.5" fill="#D9D9D9"/>
</g>
<g opacity="0.2">
<circle cx="1897.5" cy="759.5" r="2.5" fill="#D9D9D9"/>
</g>
</g>
<g opacity="0.5">
<g opacity="0.2">
<circle cx="12.5" cy="861.5" r="2.5" fill="#D9D9D9"/>
</g>
<g opacity="0.2">
<circle cx="102.5" cy="861.5" r="2.5" fill="#D9D9D9"/>
</g>
<g opacity="0.2">
<circle cx="192.5" cy="861.5" r="2.5" fill="#D9D9D9"/>
</g>
<g opacity="0.2">
<circle cx="282.5" cy="861.5" r="2.5" fill="#D9D9D9"/>
</g>
<g opacity="0.2">
<circle cx="372.5" cy="861.5" r="2.5" fill="#D9D9D9"/>
</g>
<g opacity="0.2">
<circle cx="462.5" cy="861.5" r="2.5" fill="#D9D9D9"/>
</g>
<g opacity="0.2">
<circle cx="552.5" cy="861.5" r="2.5" fill="#D9D9D9"/>
</g>
<g opacity="0.2">
<circle cx="642.5" cy="861.5" r="2.5" fill="#D9D9D9"/>
</g>
<g opacity="0.2">
<circle cx="732.5" cy="861.5" r="2.5" fill="#D9D9D9"/>
</g>
<g opacity="0.2">
<circle cx="822.5" cy="861.5" r="2.5" fill="#D9D9D9"/>
</g>
<g opacity="0.2">
<circle cx="912.5" cy="861.5" r="2.5" fill="#D9D9D9"/>
</g>
<g opacity="0.2">
<circle cx="1002.5" cy="861.5" r="2.5" fill="#D9D9D9"/>
</g>
<g opacity="0.2">
<circle cx="1092.5" cy="861.5" r="2.5" fill="#D9D9D9"/>
</g>
<g opacity="0.2">
<circle cx="1182.5" cy="861.5" r="2.5" fill="#D9D9D9"/>
</g>
<g opacity="0.2">
<circle cx="1272.5" cy="861.5" r="2.5" fill="#D9D9D9"/>
</g>
<g opacity="0.2">
<circle cx="1362.5" cy="861.5" r="2.5" fill="#D9D9D9"/>
</g>
<g opacity="0.2">
<circle cx="1452.5" cy="861.5" r="2.5" fill="#D9D9D9"/>
</g>
<g opacity="0.2">
<circle cx="1542.5" cy="861.5" r="2.5" fill="#D9D9D9"/>
</g>
<g opacity="0.2">
<circle cx="1632.5" cy="861.5" r="2.5" fill="#D9D9D9"/>
</g>
<g opacity="0.2">
<circle cx="1722.5" cy="861.5" r="2.5" fill="#D9D9D9"/>
</g>
<g opacity="0.2">
<circle cx="1812.5" cy="861.5" r="2.5" fill="#D9D9D9"/>
</g>
<g opacity="0.2">
<circle cx="1902.5" cy="861.5" r="2.5" fill="#D9D9D9"/>
</g>
</g>
<g opacity="0.5">
<g opacity="0.2">
<circle cx="17.5" cy="963.5" r="2.5" fill="#D9D9D9"/>
</g>
<g opacity="0.2">
<circle cx="107.5" cy="963.5" r="2.5" fill="#D9D9D9"/>
</g>
<g opacity="0.2">
<circle cx="197.5" cy="963.5" r="2.5" fill="#D9D9D9"/>
</g>
<g opacity="0.2">
<circle cx="287.5" cy="963.5" r="2.5" fill="#D9D9D9"/>
</g>
<g opacity="0.2">
<circle cx="377.5" cy="963.5" r="2.5" fill="#D9D9D9"/>
</g>
<g opacity="0.2">
<circle cx="467.5" cy="963.5" r="2.5" fill="#D9D9D9"/>
</g>
<g opacity="0.2">
<circle cx="557.5" cy="963.5" r="2.5" fill="#D9D9D9"/>
</g>
<g opacity="0.2">
<circle cx="647.5" cy="963.5" r="2.5" fill="#D9D9D9"/>
</g>
<g opacity="0.2">
<circle cx="737.5" cy="963.5" r="2.5" fill="#D9D9D9"/>
</g>
<g opacity="0.2">
<circle cx="827.5" cy="963.5" r="2.5" fill="#D9D9D9"/>
</g>
<g opacity="0.2">
<circle cx="917.5" cy="963.5" r="2.5" fill="#D9D9D9"/>
</g>
<g opacity="0.2">
<circle cx="1007.5" cy="963.5" r="2.5" fill="#D9D9D9"/>
</g>
<g opacity="0.2">
<circle cx="1097.5" cy="963.5" r="2.5" fill="#D9D9D9"/>
</g>
<g opacity="0.2">
<circle cx="1187.5" cy="963.5" r="2.5" fill="#D9D9D9"/>
</g>
<g opacity="0.2">
<circle cx="1277.5" cy="963.5" r="2.5" fill="#D9D9D9"/>
</g>
<g opacity="0.2">
<circle cx="1367.5" cy="963.5" r="2.5" fill="#D9D9D9"/>
</g>
<g opacity="0.2">
<circle cx="1457.5" cy="963.5" r="2.5" fill="#D9D9D9"/>
</g>
<g opacity="0.2">
<circle cx="1547.5" cy="963.5" r="2.5" fill="#D9D9D9"/>
</g>
<g opacity="0.2">
<circle cx="1637.5" cy="963.5" r="2.5" fill="#D9D9D9"/>
</g>
<g opacity="0.2">
<circle cx="1727.5" cy="963.5" r="2.5" fill="#D9D9D9"/>
</g>
<g opacity="0.2">
<circle cx="1817.5" cy="963.5" r="2.5" fill="#D9D9D9"/>
</g>
<g opacity="0.2">
<circle cx="1907.5" cy="963.5" r="2.5" fill="#D9D9D9"/>
</g>
</g>
<g opacity="0.5">
<g opacity="0.2">
<circle cx="22.5" cy="1065.5" r="2.5" fill="#D9D9D9"/>
</g>
<g opacity="0.2">
<circle cx="112.5" cy="1065.5" r="2.5" fill="#D9D9D9"/>
</g>
<g opacity="0.2">
<circle cx="202.5" cy="1065.5" r="2.5" fill="#D9D9D9"/>
</g>
<g opacity="0.2">
<circle cx="292.5" cy="1065.5" r="2.5" fill="#D9D9D9"/>
</g>
<g opacity="0.2">
<circle cx="382.5" cy="1065.5" r="2.5" fill="#D9D9D9"/>
</g>
<g opacity="0.2">
<circle cx="472.5" cy="1065.5" r="2.5" fill="#D9D9D9"/>
</g>
<g opacity="0.2">
<circle cx="562.5" cy="1065.5" r="2.5" fill="#D9D9D9"/>
</g>
<g opacity="0.2">
<circle cx="652.5" cy="1065.5" r="2.5" fill="#D9D9D9"/>
</g>
<g opacity="0.2">
<circle cx="742.5" cy="1065.5" r="2.5" fill="#D9D9D9"/>
</g>
<g opacity="0.2">
<circle cx="832.5" cy="1065.5" r="2.5" fill="#D9D9D9"/>
</g>
<g opacity="0.2">
<circle cx="922.5" cy="1065.5" r="2.5" fill="#D9D9D9"/>
</g>
<g opacity="0.2">
<circle cx="1012.5" cy="1065.5" r="2.5" fill="#D9D9D9"/>
</g>
<g opacity="0.2">
<circle cx="1102.5" cy="1065.5" r="2.5" fill="#D9D9D9"/>
</g>
<g opacity="0.2">
<circle cx="1192.5" cy="1065.5" r="2.5" fill="#D9D9D9"/>
</g>
<g opacity="0.2">
<circle cx="1282.5" cy="1065.5" r="2.5" fill="#D9D9D9"/>
</g>
<g opacity="0.2">
<circle cx="1372.5" cy="1065.5" r="2.5" fill="#D9D9D9"/>
</g>
<g opacity="0.2">
<circle cx="1462.5" cy="1065.5" r="2.5" fill="#D9D9D9"/>
</g>
<g opacity="0.2">
<circle cx="1552.5" cy="1065.5" r="2.5" fill="#D9D9D9"/>
</g>
<g opacity="0.2">
<circle cx="1642.5" cy="1065.5" r="2.5" fill="#D9D9D9"/>
</g>
<g opacity="0.2">
<circle cx="1732.5" cy="1065.5" r="2.5" fill="#D9D9D9"/>
</g>
<g opacity="0.2">
<circle cx="1822.5" cy="1065.5" r="2.5" fill="#D9D9D9"/>
</g>
<g opacity="0.2">
<circle cx="1912.5" cy="1065.5" r="2.5" fill="#D9D9D9"/>
</g>
</g>
<g opacity="0.22">
<rect x="25" y="66" width="5" height="5" rx="1" fill="#D9D9D9"/>
</g>
<g opacity="0.22">
<rect x="125" y="66" width="5" height="5" rx="1" fill="#D9D9D9"/>
</g>
<g opacity="0.22">
<rect x="225" y="66" width="5" height="5" rx="1" fill="#D9D9D9"/>
</g>
<g opacity="0.22">
<rect x="325" y="66" width="5" height="5" rx="1" fill="#D9D9D9"/>
</g>
<g opacity="0.22">
<rect x="425" y="66" width="5" height="5" rx="1" fill="#D9D9D9"/>
</g>
<g opacity="0.22">
<rect x="525" y="66" width="5" height="5" rx="1" fill="#D9D9D9"/>
</g>
<g opacity="0.22">
<rect x="625" y="66" width="5" height="5" rx="1" fill="#D9D9D9"/>
</g>
<g opacity="0.22">
<rect x="725" y="66" width="5" height="5" rx="1" fill="#D9D9D9"/>
</g>
<g opacity="0.22">
<rect x="825" y="66" width="5" height="5" rx="1" fill="#D9D9D9"/>
</g>
<g opacity="0.22">
<rect x="925" y="66" width="5" height="5" rx="1" fill="#D9D9D9"/>
</g>
<g opacity="0.22">
<rect x="1025" y="66" width="5" height="5" rx="1" fill="#D9D9D9"/>
</g>
<g opacity="0.22">
<rect x="1125" y="66" width="5" height="5" rx="1" fill="#D9D9D9"/>
</g>
<g opacity="0.22">
<rect x="1225" y="66" width="5" height="5" rx="1" fill="#D9D9D9"/>
</g>
<g opacity="0.22">
<rect x="1325" y="66" width="5" height="5" rx="1" fill="#D9D9D9"/>
</g>
<g opacity="0.22">
<rect x="1425" y="66" width="5" height="5" rx="1" fill="#D9D9D9"/>
</g>
<g opacity="0.22">
<rect x="1525" y="66" width="5" height="5" rx="1" fill="#D9D9D9"/>
</g>
<g opacity="0.22">
<rect x="1625" y="66" width="5" height="5" rx="1" fill="#D9D9D9"/>
</g>
<g opacity="0.22">
<rect x="1725" y="66" width="5" height="5" rx="1" fill="#D9D9D9"/>
</g>
<g opacity="0.22">
<rect x="1825" y="66" width="5" height="5" rx="1" fill="#D9D9D9"/>
</g>
<g opacity="0.22">
<rect x="49" y="171" width="5" height="5" rx="1" fill="#D9D9D9"/>
</g>
<g opacity="0.22">
<rect x="149" y="171" width="5" height="5" rx="1" fill="#D9D9D9"/>
</g>
<g opacity="0.22">
<rect x="249" y="171" width="5" height="5" rx="1" fill="#D9D9D9"/>
</g>
<g opacity="0.22">
<rect x="349" y="171" width="5" height="5" rx="1" fill="#D9D9D9"/>
</g>
<g opacity="0.22">
<rect x="449" y="171" width="5" height="5" rx="1" fill="#D9D9D9"/>
</g>
<g opacity="0.22">
<rect x="549" y="171" width="5" height="5" rx="1" fill="#D9D9D9"/>
</g>
<g opacity="0.22">
<rect x="649" y="171" width="5" height="5" rx="1" fill="#D9D9D9"/>
</g>
<g opacity="0.22">
<rect x="749" y="171" width="5" height="5" rx="1" fill="#D9D9D9"/>
</g>
<g opacity="0.22">
<rect x="849" y="171" width="5" height="5" rx="1" fill="#D9D9D9"/>
</g>
<g opacity="0.22">
<rect x="949" y="171" width="5" height="5" rx="1" fill="#D9D9D9"/>
</g>
<g opacity="0.22">
<rect x="1049" y="171" width="5" height="5" rx="1" fill="#D9D9D9"/>
</g>
<g opacity="0.22">
<rect x="1149" y="171" width="5" height="5" rx="1" fill="#D9D9D9"/>
</g>
<g opacity="0.22">
<rect x="1249" y="171" width="5" height="5" rx="1" fill="#D9D9D9"/>
</g>
<g opacity="0.22">
<rect x="1349" y="171" width="5" height="5" rx="1" fill="#D9D9D9"/>
</g>
<g opacity="0.22">
<rect x="1449" y="171" width="5" height="5" rx="1" fill="#D9D9D9"/>
</g>
<g opacity="0.22">
<rect x="1549" y="171" width="5" height="5" rx="1" fill="#D9D9D9"/>
</g>
<g opacity="0.22">
<rect x="1649" y="171" width="5" height="5" rx="1" fill="#D9D9D9"/>
</g>
<g opacity="0.22">
<rect x="1749" y="171" width="5" height="5" rx="1" fill="#D9D9D9"/>
</g>
<g opacity="0.22">
<rect x="1849" y="171" width="5" height="5" rx="1" fill="#D9D9D9"/>
</g>
<g opacity="0.22">
<rect x="68" y="273" width="5" height="5" rx="1" fill="#D9D9D9"/>
</g>
<g opacity="0.22">
<rect x="168" y="273" width="5" height="5" rx="1" fill="#D9D9D9"/>
</g>
<g opacity="0.22">
<rect x="268" y="273" width="5" height="5" rx="1" fill="#D9D9D9"/>
</g>
<g opacity="0.22">
<rect x="368" y="273" width="5" height="5" rx="1" fill="#D9D9D9"/>
</g>
<g opacity="0.22">
<rect x="468" y="273" width="5" height="5" rx="1" fill="#D9D9D9"/>
</g>
<g opacity="0.22">
<rect x="568" y="273" width="5" height="5" rx="1" fill="#D9D9D9"/>
</g>
<g opacity="0.22">
<rect x="668" y="273" width="5" height="5" rx="1" fill="#D9D9D9"/>
</g>
<g opacity="0.22">
<rect x="768" y="273" width="5" height="5" rx="1" fill="#D9D9D9"/>
</g>
<g opacity="0.22">
<rect x="868" y="273" width="5" height="5" rx="1" fill="#D9D9D9"/>
</g>
<g opacity="0.22">
<rect x="968" y="273" width="5" height="5" rx="1" fill="#D9D9D9"/>
</g>
<g opacity="0.22">
<rect x="1068" y="273" width="5" height="5" rx="1" fill="#D9D9D9"/>
</g>
<g opacity="0.22">
<rect x="1168" y="273" width="5" height="5" rx="1" fill="#D9D9D9"/>
</g>
<g opacity="0.22">
<rect x="1268" y="273" width="5" height="5" rx="1" fill="#D9D9D9"/>
</g>
<g opacity="0.22">
<rect x="1368" y="273" width="5" height="5" rx="1" fill="#D9D9D9"/>
</g>
<g opacity="0.22">
<rect x="1468" y="273" width="5" height="5" rx="1" fill="#D9D9D9"/>
</g>
<g opacity="0.22">
<rect x="1568" y="273" width="5" height="5" rx="1" fill="#D9D9D9"/>
</g>
<g opacity="0.22">
<rect x="1668" y="273" width="5" height="5" rx="1" fill="#D9D9D9"/>
</g>
<g opacity="0.22">
<rect x="1768" y="273" width="5" height="5" rx="1" fill="#D9D9D9"/>
</g>
<g opacity="0.22">
<rect x="28" y="385" width="5" height="5" rx="1" fill="#D9D9D9"/>
</g>
<g opacity="0.22">
<rect x="128" y="385" width="5" height="5" rx="1" fill="#D9D9D9"/>
</g>
<g opacity="0.22">
<rect x="228" y="385" width="5" height="5" rx="1" fill="#D9D9D9"/>
</g>
<g opacity="0.22">
<rect x="328" y="385" width="5" height="5" rx="1" fill="#D9D9D9"/>
</g>
<g opacity="0.22">
<rect x="428" y="385" width="5" height="5" rx="1" fill="#D9D9D9"/>
</g>
<g opacity="0.22">
<rect x="528" y="385" width="5" height="5" rx="1" fill="#D9D9D9"/>
</g>
<g opacity="0.22">
<rect x="628" y="385" width="5" height="5" rx="1" fill="#D9D9D9"/>
</g>
<g opacity="0.22">
<rect x="728" y="385" width="5" height="5" rx="1" fill="#D9D9D9"/>
</g>
<g opacity="0.22">
<rect x="828" y="385" width="5" height="5" rx="1" fill="#D9D9D9"/>
</g>
<g opacity="0.22">
<rect x="928" y="385" width="5" height="5" rx="1" fill="#D9D9D9"/>
</g>
<g opacity="0.22">
<rect x="1028" y="385" width="5" height="5" rx="1" fill="#D9D9D9"/>
</g>
<g opacity="0.22">
<rect x="1128" y="385" width="5" height="5" rx="1" fill="#D9D9D9"/>
</g>
<g opacity="0.22">
<rect x="1228" y="385" width="5" height="5" rx="1" fill="#D9D9D9"/>
</g>
<g opacity="0.22">
<rect x="1328" y="385" width="5" height="5" rx="1" fill="#D9D9D9"/>
</g>
<g opacity="0.22">
<rect x="1428" y="385" width="5" height="5" rx="1" fill="#D9D9D9"/>
</g>
<g opacity="0.22">
<rect x="1528" y="385" width="5" height="5" rx="1" fill="#D9D9D9"/>
</g>
<g opacity="0.22">
<rect x="1628" y="385" width="5" height="5" rx="1" fill="#D9D9D9"/>
</g>
<g opacity="0.22">
<rect x="1728" y="385" width="5" height="5" rx="1" fill="#D9D9D9"/>
</g>
<g opacity="0.22">
<rect x="1828" y="385" width="5" height="5" rx="1" fill="#D9D9D9"/>
</g>
<g opacity="0.22">
<rect x="44" y="490" width="5" height="5" rx="1" fill="#D9D9D9"/>
</g>
<g opacity="0.22">
<rect x="144" y="490" width="5" height="5" rx="1" fill="#D9D9D9"/>
</g>
<g opacity="0.22">
<rect x="244" y="490" width="5" height="5" rx="1" fill="#D9D9D9"/>
</g>
<g opacity="0.22">
<rect x="344" y="490" width="5" height="5" rx="1" fill="#D9D9D9"/>
</g>
<g opacity="0.22">
<rect x="444" y="490" width="5" height="5" rx="1" fill="#D9D9D9"/>
</g>
<g opacity="0.22">
<rect x="544" y="490" width="5" height="5" rx="1" fill="#D9D9D9"/>
</g>
<g opacity="0.22">
<rect x="644" y="490" width="5" height="5" rx="1" fill="#D9D9D9"/>
</g>
<g opacity="0.22">
<rect x="744" y="490" width="5" height="5" rx="1" fill="#D9D9D9"/>
</g>
<g opacity="0.22">
<rect x="844" y="490" width="5" height="5" rx="1" fill="#D9D9D9"/>
</g>
<g opacity="0.22">
<rect x="944" y="490" width="5" height="5" rx="1" fill="#D9D9D9"/>
</g>
<g opacity="0.22">
<rect x="1044" y="490" width="5" height="5" rx="1" fill="#D9D9D9"/>
</g>
<g opacity="0.22">
<rect x="1144" y="490" width="5" height="5" rx="1" fill="#D9D9D9"/>
</g>
<g opacity="0.22">
<rect x="1244" y="490" width="5" height="5" rx="1" fill="#D9D9D9"/>
</g>
<g opacity="0.22">
<rect x="1344" y="490" width="5" height="5" rx="1" fill="#D9D9D9"/>
</g>
<g opacity="0.22">
<rect x="1444" y="490" width="5" height="5" rx="1" fill="#D9D9D9"/>
</g>
<g opacity="0.22">
<rect x="1544" y="490" width="5" height="5" rx="1" fill="#D9D9D9"/>
</g>
<g opacity="0.22">
<rect x="1644" y="490" width="5" height="5" rx="1" fill="#D9D9D9"/>
</g>
<g opacity="0.22">
<rect x="1744" y="490" width="5" height="5" rx="1" fill="#D9D9D9"/>
</g>
<g opacity="0.22">
<rect x="1844" y="490" width="5" height="5" rx="1" fill="#D9D9D9"/>
</g>
<g opacity="0.22">
<rect x="33" y="592" width="5" height="5" rx="1" fill="#D9D9D9"/>
</g>
<g opacity="0.22">
<rect x="133" y="592" width="5" height="5" rx="1" fill="#D9D9D9"/>
</g>
<g opacity="0.22">
<rect x="233" y="592" width="5" height="5" rx="1" fill="#D9D9D9"/>
</g>
<g opacity="0.22">
<rect x="333" y="592" width="5" height="5" rx="1" fill="#D9D9D9"/>
</g>
<g opacity="0.22">
<rect x="433" y="592" width="5" height="5" rx="1" fill="#D9D9D9"/>
</g>
<g opacity="0.22">
<rect x="533" y="592" width="5" height="5" rx="1" fill="#D9D9D9"/>
</g>
<g opacity="0.22">
<rect x="633" y="592" width="5" height="5" rx="1" fill="#D9D9D9"/>
</g>
<g opacity="0.22">
<rect x="733" y="592" width="5" height="5" rx="1" fill="#D9D9D9"/>
</g>
<g opacity="0.22">
<rect x="833" y="592" width="5" height="5" rx="1" fill="#D9D9D9"/>
</g>
<g opacity="0.22">
<rect x="933" y="592" width="5" height="5" rx="1" fill="#D9D9D9"/>
</g>
<g opacity="0.22">
<rect x="1033" y="592" width="5" height="5" rx="1" fill="#D9D9D9"/>
</g>
<g opacity="0.22">
<rect x="1133" y="592" width="5" height="5" rx="1" fill="#D9D9D9"/>
</g>
<g opacity="0.22">
<rect x="1233" y="592" width="5" height="5" rx="1" fill="#D9D9D9"/>
</g>
<g opacity="0.22">
<rect x="1333" y="592" width="5" height="5" rx="1" fill="#D9D9D9"/>
</g>
<g opacity="0.22">
<rect x="1433" y="592" width="5" height="5" rx="1" fill="#D9D9D9"/>
</g>
<g opacity="0.22">
<rect x="1533" y="592" width="5" height="5" rx="1" fill="#D9D9D9"/>
</g>
<g opacity="0.22">
<rect x="1633" y="592" width="5" height="5" rx="1" fill="#D9D9D9"/>
</g>
<g opacity="0.22">
<rect x="1733" y="592" width="5" height="5" rx="1" fill="#D9D9D9"/>
</g>
<g opacity="0.22">
<rect x="1833" y="592" width="5" height="5" rx="1" fill="#D9D9D9"/>
</g>
<g opacity="0.22">
<rect x="19" y="697" width="5" height="5" rx="1" fill="#D9D9D9"/>
</g>
<g opacity="0.22">
<rect x="119" y="697" width="5" height="5" rx="1" fill="#D9D9D9"/>
</g>
<g opacity="0.22">
<rect x="219" y="697" width="5" height="5" rx="1" fill="#D9D9D9"/>
</g>
<g opacity="0.22">
<rect x="319" y="697" width="5" height="5" rx="1" fill="#D9D9D9"/>
</g>
<g opacity="0.22">
<rect x="419" y="697" width="5" height="5" rx="1" fill="#D9D9D9"/>
</g>
<g opacity="0.22">
<rect x="519" y="697" width="5" height="5" rx="1" fill="#D9D9D9"/>
</g>
<g opacity="0.22">
<rect x="619" y="697" width="5" height="5" rx="1" fill="#D9D9D9"/>
</g>
<g opacity="0.22">
<rect x="719" y="697" width="5" height="5" rx="1" fill="#D9D9D9"/>
</g>
<g opacity="0.22">
<rect x="819" y="697" width="5" height="5" rx="1" fill="#D9D9D9"/>
</g>
<g opacity="0.22">
<rect x="919" y="697" width="5" height="5" rx="1" fill="#D9D9D9"/>
</g>
<g opacity="0.22">
<rect x="1019" y="697" width="5" height="5" rx="1" fill="#D9D9D9"/>
</g>
<g opacity="0.22">
<rect x="1119" y="697" width="5" height="5" rx="1" fill="#D9D9D9"/>
</g>
<g opacity="0.22">
<rect x="1219" y="697" width="5" height="5" rx="1" fill="#D9D9D9"/>
</g>
<g opacity="0.22">
<rect x="1319" y="697" width="5" height="5" rx="1" fill="#D9D9D9"/>
</g>
<g opacity="0.22">
<rect x="1419" y="697" width="5" height="5" rx="1" fill="#D9D9D9"/>
</g>
<g opacity="0.22">
<rect x="1519" y="697" width="5" height="5" rx="1" fill="#D9D9D9"/>
</g>
<g opacity="0.22">
<rect x="1619" y="697" width="5" height="5" rx="1" fill="#D9D9D9"/>
</g>
<g opacity="0.22">
<rect x="1719" y="697" width="5" height="5" rx="1" fill="#D9D9D9"/>
</g>
<g opacity="0.22">
<rect x="1819" y="697" width="5" height="5" rx="1" fill="#D9D9D9"/>
</g>
<g opacity="0.22">
<rect x="24" y="799" width="5" height="5" rx="1" fill="#D9D9D9"/>
</g>
<g opacity="0.22">
<rect x="124" y="799" width="5" height="5" rx="1" fill="#D9D9D9"/>
</g>
<g opacity="0.22">
<rect x="224" y="799" width="5" height="5" rx="1" fill="#D9D9D9"/>
</g>
<g opacity="0.22">
<rect x="324" y="799" width="5" height="5" rx="1" fill="#D9D9D9"/>
</g>
<g opacity="0.22">
<rect x="424" y="799" width="5" height="5" rx="1" fill="#D9D9D9"/>
</g>
<g opacity="0.22">
<rect x="524" y="799" width="5" height="5" rx="1" fill="#D9D9D9"/>
</g>
<g opacity="0.22">
<rect x="624" y="799" width="5" height="5" rx="1" fill="#D9D9D9"/>
</g>
<g opacity="0.22">
<rect x="724" y="799" width="5" height="5" rx="1" fill="#D9D9D9"/>
</g>
<g opacity="0.22">
<rect x="824" y="799" width="5" height="5" rx="1" fill="#D9D9D9"/>
</g>
<g opacity="0.22">
<rect x="924" y="799" width="5" height="5" rx="1" fill="#D9D9D9"/>
</g>
<g opacity="0.22">
<rect x="1024" y="799" width="5" height="5" rx="1" fill="#D9D9D9"/>
</g>
<g opacity="0.22">
<rect x="1124" y="799" width="5" height="5" rx="1" fill="#D9D9D9"/>
</g>
<g opacity="0.22">
<rect x="1224" y="799" width="5" height="5" rx="1" fill="#D9D9D9"/>
</g>
<g opacity="0.22">
<rect x="1324" y="799" width="5" height="5" rx="1" fill="#D9D9D9"/>
</g>
<g opacity="0.22">
<rect x="1424" y="799" width="5" height="5" rx="1" fill="#D9D9D9"/>
</g>
<g opacity="0.22">
<rect x="1524" y="799" width="5" height="5" rx="1" fill="#D9D9D9"/>
</g>
<g opacity="0.22">
<rect x="1624" y="799" width="5" height="5" rx="1" fill="#D9D9D9"/>
</g>
<g opacity="0.22">
<rect x="1724" y="799" width="5" height="5" rx="1" fill="#D9D9D9"/>
</g>
<g opacity="0.22">
<rect x="1824" y="799" width="5" height="5" rx="1" fill="#D9D9D9"/>
</g>
<g opacity="0.22">
<rect x="29" y="901" width="5" height="5" rx="1" fill="#D9D9D9"/>
</g>
<g opacity="0.22">
<rect x="129" y="901" width="5" height="5" rx="1" fill="#D9D9D9"/>
</g>
<g opacity="0.22">
<rect x="229" y="901" width="5" height="5" rx="1" fill="#D9D9D9"/>
</g>
<g opacity="0.22">
<rect x="329" y="901" width="5" height="5" rx="1" fill="#D9D9D9"/>
</g>
<g opacity="0.22">
<rect x="429" y="901" width="5" height="5" rx="1" fill="#D9D9D9"/>
</g>
<g opacity="0.22">
<rect x="529" y="901" width="5" height="5" rx="1" fill="#D9D9D9"/>
</g>
<g opacity="0.22">
<rect x="629" y="901" width="5" height="5" rx="1" fill="#D9D9D9"/>
</g>
<g opacity="0.22">
<rect x="729" y="901" width="5" height="5" rx="1" fill="#D9D9D9"/>
</g>
<g opacity="0.22">
<rect x="829" y="901" width="5" height="5" rx="1" fill="#D9D9D9"/>
</g>
<g opacity="0.22">
<rect x="929" y="901" width="5" height="5" rx="1" fill="#D9D9D9"/>
</g>
<g opacity="0.22">
<rect x="1029" y="901" width="5" height="5" rx="1" fill="#D9D9D9"/>
</g>
<g opacity="0.22">
<rect x="1129" y="901" width="5" height="5" rx="1" fill="#D9D9D9"/>
</g>
<g opacity="0.22">
<rect x="1229" y="901" width="5" height="5" rx="1" fill="#D9D9D9"/>
</g>
<g opacity="0.22">
<rect x="1329" y="901" width="5" height="5" rx="1" fill="#D9D9D9"/>
</g>
<g opacity="0.22">
<rect x="1429" y="901" width="5" height="5" rx="1" fill="#D9D9D9"/>
</g>
<g opacity="0.22">
<rect x="1529" y="901" width="5" height="5" rx="1" fill="#D9D9D9"/>
</g>
<g opacity="0.22">
<rect x="1629" y="901" width="5" height="5" rx="1" fill="#D9D9D9"/>
</g>
<g opacity="0.22">
<rect x="1729" y="901" width="5" height="5" rx="1" fill="#D9D9D9"/>
</g>
<g opacity="0.22">
<rect x="1829" y="901" width="5" height="5" rx="1" fill="#D9D9D9"/>
</g>
<g opacity="0.22">
<rect x="34" y="1003" width="5" height="5" rx="1" fill="#D9D9D9"/>
</g>
<g opacity="0.22">
<rect x="134" y="1003" width="5" height="5" rx="1" fill="#D9D9D9"/>
</g>
<g opacity="0.22">
<rect x="234" y="1003" width="5" height="5" rx="1" fill="#D9D9D9"/>
</g>
<g opacity="0.22">
<rect x="334" y="1003" width="5" height="5" rx="1" fill="#D9D9D9"/>
</g>
<g opacity="0.22">
<rect x="434" y="1003" width="5" height="5" rx="1" fill="#D9D9D9"/>
</g>
<g opacity="0.22">
<rect x="534" y="1003" width="5" height="5" rx="1" fill="#D9D9D9"/>
</g>
<g opacity="0.22">
<rect x="634" y="1003" width="5" height="5" rx="1" fill="#D9D9D9"/>
</g>
<g opacity="0.22">
<rect x="734" y="1003" width="5" height="5" rx="1" fill="#D9D9D9"/>
</g>
<g opacity="0.22">
<rect x="834" y="1003" width="5" height="5" rx="1" fill="#D9D9D9"/>
</g>
<g opacity="0.22">
<rect x="934" y="1003" width="5" height="5" rx="1" fill="#D9D9D9"/>
</g>
<g opacity="0.22">
<rect x="1034" y="1003" width="5" height="5" rx="1" fill="#D9D9D9"/>
</g>
<g opacity="0.22">
<rect x="1134" y="1003" width="5" height="5" rx="1" fill="#D9D9D9"/>
</g>
<g opacity="0.22">
<rect x="1234" y="1003" width="5" height="5" rx="1" fill="#D9D9D9"/>
</g>
<g opacity="0.22">
<rect x="1334" y="1003" width="5" height="5" rx="1" fill="#D9D9D9"/>
</g>
<g opacity="0.22">
<rect x="1434" y="1003" width="5" height="5" rx="1" fill="#D9D9D9"/>
</g>
<g opacity="0.22">
<rect x="1534" y="1003" width="5" height="5" rx="1" fill="#D9D9D9"/>
</g>
<g opacity="0.22">
<rect x="1634" y="1003" width="5" height="5" rx="1" fill="#D9D9D9"/>
</g>
<g opacity="0.22">
<rect x="1734" y="1003" width="5" height="5" rx="1" fill="#D9D9D9"/>
</g>
<g opacity="0.22">
<rect x="1834" y="1003" width="5" height="5" rx="1" fill="#D9D9D9"/>
</g>
</g>
<defs>
<clipPath id="clip0_25_17203">
<rect width="1920" height="1080" fill="white"/>
</clipPath>
</defs>
</svg>
