<svg width="32" height="31" viewBox="0 0 32 31" fill="none" xmlns="http://www.w3.org/2000/svg">
<path d="M28.1786 0H3.82143C1.98772 0 0.5 1.48772 0.5 3.32143V27.6786C0.5 29.5123 1.98772 31 3.82143 31H28.1786C30.0123 31 31.5 29.5123 31.5 27.6786V3.32143C31.5 1.48772 30.0123 0 28.1786 0ZM19.6882 26.5507C19.1069 26.6545 18.8924 26.2946 18.8924 25.9971C18.8924 25.6234 18.9062 23.7136 18.9062 22.1705C18.9062 21.0911 18.5464 20.406 18.1243 20.0462C20.6846 19.7625 23.3833 19.4096 23.3833 14.9879C23.3833 13.7286 22.9335 13.0989 22.2 12.2893C22.3176 11.9917 22.7121 10.767 22.0824 9.17545C21.1205 8.8779 18.9201 10.4141 18.9201 10.4141C18.0067 10.158 17.0172 10.0266 16.0415 10.0266C15.0658 10.0266 14.0763 10.158 13.1629 10.4141C13.1629 10.4141 10.9625 8.8779 10.0007 9.17545C9.37098 10.76 9.75848 11.9848 9.88304 12.2893C9.14955 13.0989 8.80357 13.7286 8.80357 14.9879C8.80357 19.3888 11.3846 19.7625 13.9449 20.0462C13.6127 20.3438 13.3152 20.8558 13.2114 21.5893C12.554 21.8868 10.8725 22.3989 9.8692 20.6275C9.23951 19.5342 8.10469 19.4442 8.10469 19.4442C6.9837 19.4304 8.02857 20.15 8.02857 20.15C8.77589 20.496 9.30179 21.8246 9.30179 21.8246C9.97299 23.8797 13.1837 23.1877 13.1837 23.1877C13.1837 24.1496 13.1975 25.7134 13.1975 25.9971C13.1975 26.2946 12.99 26.6545 12.4018 26.5507C7.83482 25.0214 4.63795 20.6759 4.63795 15.5969C4.63795 9.24464 9.49554 4.42165 15.8478 4.42165C22.2 4.42165 27.3482 9.24464 27.3482 15.5969C27.3551 20.6759 24.2551 25.0283 19.6882 26.5507ZM12.9 22.3228C12.7685 22.3504 12.644 22.2951 12.6301 22.2051C12.6163 22.1013 12.7063 22.0114 12.8377 21.9837C12.9692 21.9699 13.0937 22.0252 13.1076 22.1152C13.1283 22.2051 13.0384 22.2951 12.9 22.3228ZM12.2426 22.2605C12.2426 22.3504 12.1388 22.4266 12.0004 22.4266C11.8482 22.4404 11.7444 22.3643 11.7444 22.2605C11.7444 22.1705 11.8482 22.0944 11.9866 22.0944C12.1181 22.0806 12.2426 22.1567 12.2426 22.2605ZM11.2946 22.1844C11.267 22.2743 11.1286 22.3158 11.0109 22.2743C10.8795 22.2467 10.7895 22.1429 10.8172 22.0529C10.8449 21.9629 10.9833 21.9214 11.1009 21.9491C11.2393 21.9906 11.3292 22.0944 11.2946 22.1844ZM10.4435 21.8107C10.3812 21.8868 10.2498 21.873 10.146 21.7692C10.0422 21.6792 10.0145 21.5478 10.0837 21.4855C10.146 21.4094 10.2775 21.4232 10.3813 21.527C10.4712 21.617 10.5058 21.7554 10.4435 21.8107ZM9.81384 21.181C9.75156 21.2225 9.63393 21.181 9.55781 21.0772C9.4817 20.9734 9.4817 20.8558 9.55781 20.8074C9.63393 20.7451 9.75156 20.7935 9.81384 20.8973C9.88996 21.0011 9.88996 21.1257 9.81384 21.181ZM9.36406 20.5098C9.30179 20.5721 9.19799 20.5375 9.12187 20.4683C9.04576 20.3783 9.03192 20.2746 9.0942 20.2261C9.15647 20.1638 9.26027 20.1984 9.33638 20.2676C9.4125 20.3576 9.42634 20.4614 9.36406 20.5098ZM8.90045 19.9978C8.87277 20.06 8.78281 20.0739 8.7067 20.0254C8.61674 19.9839 8.57522 19.9078 8.6029 19.8455C8.63058 19.804 8.7067 19.7833 8.79665 19.8179C8.88661 19.8663 8.92813 19.9424 8.90045 19.9978Z" fill="#C9C7C7"/>
</svg>
