<svg width="31" height="31" viewBox="0 0 31 31" fill="none" xmlns="http://www.w3.org/2000/svg">
<g clip-path="url(#clip0_9_21)">
<path d="M26.4132 26.4138H21.82V19.2204C21.82 17.5051 21.7894 15.297 19.4311 15.297C17.0387 15.297 16.6727 17.166 16.6727 19.0956V26.4133H12.0796V11.621H16.489V13.6425H16.5507C16.992 12.888 17.6297 12.2672 18.3958 11.8465C19.162 11.4257 20.0279 11.2205 20.9014 11.253C25.5568 11.253 26.4151 14.3152 26.4151 18.2989L26.4132 26.4138ZM6.89677 9.59906C5.42463 9.5993 4.23101 8.40604 4.23077 6.9339C4.23053 5.46177 5.42367 4.26815 6.8958 4.2679C8.36794 4.26754 9.56156 5.4608 9.5618 6.93293C9.56193 7.63988 9.28123 8.31793 8.78144 8.81792C8.28165 9.31791 7.60372 9.5989 6.89677 9.59906ZM9.19344 26.4139H4.59538V11.621H9.19331V26.4138L9.19344 26.4139ZM28.7031 0.00213414H2.28734C1.03886 -0.0119127 0.0150137 0.9882 -0.000244141 2.23668V28.7626C0.0145293 30.0117 1.03826 31.0128 2.28722 30.9997H28.7031C29.9547 31.0152 30.9824 30.0141 30.9998 28.7626V2.23462C30.982 0.98372 29.9541 -0.0162721 28.7031 7.55417e-05" fill="#C9C7C7"/>
</g>
<defs>
<clipPath id="clip0_9_21">
<rect width="31" height="31" fill="white"/>
</clipPath>
</defs>
</svg>
