<svg width="32" height="31" viewBox="0 0 32 31" fill="none" xmlns="http://www.w3.org/2000/svg">
<g clip-path="url(#clip0_9_25)">
<path d="M26.3333 9.72786C25.5799 10.0642 24.7658 10.293 23.8913 10.4141C24.8062 9.87587 25.4319 9.08876 25.7682 8.05273C24.8937 8.56402 23.9922 8.90712 23.0638 9.08203C22.2431 8.19401 21.2138 7.75 19.9759 7.75C18.8053 7.75 17.8063 8.16374 16.9788 8.99121C16.1514 9.81868 15.7376 10.8177 15.7376 11.9883C15.7376 12.3785 15.7713 12.7014 15.8385 12.957C14.1029 12.8628 12.4748 12.4256 10.9544 11.6452C9.43403 10.8648 8.14236 9.82205 7.07943 8.51693C6.68924 9.18967 6.49414 9.90278 6.49414 10.6562C6.49414 12.1901 7.10634 13.3674 8.33073 14.1882C7.69835 14.1747 7.02561 13.9998 6.3125 13.6634V13.7038C6.3125 14.7129 6.64887 15.611 7.32161 16.3981C7.99436 17.1852 8.82183 17.673 9.80404 17.8613C9.41385 17.969 9.07075 18.0228 8.77474 18.0228C8.59983 18.0228 8.33746 17.9959 7.98763 17.9421C8.27018 18.7897 8.77138 19.4894 9.49121 20.041C10.211 20.5927 11.0284 20.8752 11.9434 20.8887C10.3826 22.0996 8.62674 22.7051 6.67578 22.7051C6.32595 22.7051 5.98958 22.6849 5.66667 22.6445C7.65799 23.9093 9.82422 24.5417 12.1654 24.5417C13.6723 24.5417 15.0851 24.3028 16.4036 23.8252C17.7222 23.3475 18.8524 22.7084 19.7943 21.9079C20.7361 21.1073 21.5468 20.1857 22.2262 19.1429C22.9057 18.1002 23.4103 17.0103 23.7399 15.8734C24.0696 14.7364 24.2344 13.6029 24.2344 12.4727C24.2344 12.2305 24.2276 12.0488 24.2142 11.9277C25.0618 11.3223 25.7682 10.589 26.3333 9.72786ZM31.5 5.8125V25.1875C31.5 26.7886 30.9315 28.1577 29.7946 29.2946C28.6577 30.4315 27.2886 31 25.6875 31H6.3125C4.71137 31 3.34234 30.4315 2.2054 29.2946C1.06847 28.1577 0.5 26.7886 0.5 25.1875V5.8125C0.5 4.21137 1.06847 2.84234 2.2054 1.7054C3.34234 0.568468 4.71137 0 6.3125 0H25.6875C27.2886 0 28.6577 0.568468 29.7946 1.7054C30.9315 2.84234 31.5 4.21137 31.5 5.8125Z" fill="#C9C7C7"/>
</g>
<defs>
<clipPath id="clip0_9_25">
<rect width="31" height="31" fill="white" transform="translate(0.5)"/>
</clipPath>
</defs>
</svg>
